<svg data-v-fde0c5aa="" xmlns="http://www.w3.org/2000/svg" viewBox="0 0 300 300" class="iconAbove"><!----><defs data-v-fde0c5aa=""><!----></defs><rect data-v-fde0c5aa="" fill="#E9F1EF" x="0" y="0" width="300px" height="300px" class="logo-background-square"></rect><defs data-v-fde0c5aa=""><!----></defs><g data-v-fde0c5aa="" id="90bc587a-878f-46ec-9edf-a6af1f715f45" fill="#163530" transform="matrix(3.5660400390625,0,0,3.5660400390625,17.503771941309857,172.47971071400917)"><path d="M0.70 12.07L0.70 8.65L0.70 7.75L0.70 7.75Q0.81 7.08 1.02 6.65L1.02 6.65L1.02 6.65Q1.50 5.48 2.30 4.93L2.30 4.93L2.30 4.93Q3.11 4.38 3.64 4.38L3.64 4.38L3.64 4.38Q4.04 4.38 4.49 4.64L4.49 4.64L3.99 5.45L3.99 5.45Q3.36 5.22 2.73 5.82L2.73 5.82L2.73 5.82Q2.11 6.43 1.87 7.15L1.87 7.15L1.87 7.15Q1.69 7.79 1.69 9.54L1.69 9.54L1.69 12.07L0.70 12.07ZM8.60 4.22L8.60 4.22L8.60 4.22Q10.33 4.22 11.47 5.47L11.47 5.47L11.47 5.47Q12.50 6.62 12.50 8.18L12.50 8.18L12.50 8.18Q12.50 9.75 11.41 10.92L11.41 10.92L11.41 10.92Q10.32 12.09 8.60 12.09L8.60 12.09L8.60 12.09Q6.88 12.09 5.79 10.92L5.79 10.92L5.79 10.92Q4.70 9.75 4.70 8.18L4.70 8.18L4.70 8.18Q4.70 6.62 5.73 5.48L5.73 5.48L5.73 5.48Q6.87 4.22 8.60 4.22ZM8.60 5.16L8.60 5.16L8.60 5.16Q7.40 5.16 6.54 6.05L6.54 6.05L6.54 6.05Q5.68 6.94 5.68 8.20L5.68 8.20L5.68 8.20Q5.68 9.01 6.07 9.72L6.07 9.72L6.07 9.72Q6.47 10.42 7.14 10.80L7.14 10.80L7.14 10.80Q7.81 11.18 8.60 11.18L8.60 11.18L8.60 11.18Q9.41 11.18 10.07 10.80L10.07 10.80L10.07 10.80Q10.74 10.42 11.13 9.72L11.13 9.72L11.13 9.72Q11.52 9.01 11.52 8.20L11.52 8.20L11.52 8.20Q11.52 6.94 10.66 6.05L10.66 6.05L10.66 6.05Q9.80 5.16 8.60 5.16ZM21.21 10.63L21.21 10.63L21.21 10.63Q21.83 9.60 21.95 8.61L21.95 8.61L21.95 8.61Q21.95 1.50 21.95 1.51L21.95 1.51L20.99 1.51L20.99 5.69L20.99 5.69Q20.38 4.95 19.63 4.58L19.63 4.58L19.63 4.58Q18.88 4.22 17.99 4.22L17.99 4.22L17.99 4.22Q16.40 4.22 15.27 5.37L15.27 5.37L15.27 5.37Q14.14 6.53 14.14 8.18L14.14 8.18L14.14 8.18Q14.14 9.80 15.28 10.94L15.28 10.94L15.28 10.94Q16.41 12.09 18.01 12.09L18.01 12.09L18.01 12.09Q18.93 12.09 19.73 11.74L19.73 11.74L19.73 11.74Q20.54 11.39 21.21 10.63ZM18.09 11.17L18.09 11.17L18.09 11.17Q17.28 11.17 16.60 10.77L16.60 10.77L16.60 10.77Q15.92 10.37 15.52 9.66L15.52 9.66L15.52 9.66Q15.11 8.95 15.11 8.14L15.11 8.14L15.11 8.14Q15.11 7.35 15.52 6.62L15.52 6.62L15.52 6.62Q15.93 5.89 16.61 5.49L16.61 5.49L16.61 5.49Q17.30 5.09 18.08 5.09L18.08 5.09L18.08 5.09Q18.87 5.09 19.58 5.49L19.58 5.49L19.58 5.49Q20.30 5.89 20.68 6.58L20.68 6.58L20.68 6.58Q21.06 7.27 21.06 8.11L21.06 8.11L21.06 8.11Q21.06 9.42 20.20 10.29L20.20 10.29L20.20 10.29Q19.34 11.17 18.09 11.17ZM24.53 10.63L24.53 10.63L24.53 10.63Q23.91 9.60 23.79 8.61L23.79 8.61L23.79 8.61Q23.79 1.50 23.79 1.51L23.79 1.51L24.75 1.51L24.75 5.69L24.75 5.69Q25.35 4.95 26.11 4.58L26.11 4.58L26.11 4.58Q26.86 4.22 27.75 4.22L27.75 4.22L27.75 4.22Q29.34 4.22 30.47 5.37L30.47 5.37L30.47 5.37Q31.60 6.53 31.60 8.18L31.60 8.18L31.60 8.18Q31.60 9.80 30.46 10.94L30.46 10.94L30.46 10.94Q29.33 12.09 27.73 12.09L27.73 12.09L27.73 12.09Q26.81 12.09 26.01 11.74L26.01 11.74L26.01 11.74Q25.20 11.39 24.53 10.63ZM27.64 11.17L27.64 11.17L27.64 11.17Q28.46 11.17 29.14 10.77L29.14 10.77L29.14 10.77Q29.82 10.37 30.22 9.66L30.22 9.66L30.22 9.66Q30.63 8.95 30.63 8.14L30.63 8.14L30.63 8.14Q30.63 7.35 30.22 6.62L30.22 6.62L30.22 6.62Q29.81 5.89 29.12 5.49L29.12 5.49L29.12 5.49Q28.44 5.09 27.66 5.09L27.66 5.09L27.66 5.09Q26.87 5.09 26.15 5.49L26.15 5.49L26.15 5.49Q25.44 5.89 25.06 6.58L25.06 6.58L25.06 6.58Q24.68 7.27 24.68 8.11L24.68 8.11L24.68 8.11Q24.68 9.42 25.54 10.29L25.54 10.29L25.54 10.29Q26.40 11.17 27.64 11.17ZM37.07 4.22L37.07 4.22L37.07 4.22Q38.80 4.22 39.94 5.47L39.94 5.47L39.94 5.47Q40.97 6.62 40.97 8.18L40.97 8.18L40.97 8.18Q40.97 9.75 39.88 10.92L39.88 10.92L39.88 10.92Q38.79 12.09 37.07 12.09L37.07 12.09L37.07 12.09Q35.35 12.09 34.26 10.92L34.26 10.92L34.26 10.92Q33.17 9.75 33.17 8.18L33.17 8.18L33.17 8.18Q33.17 6.62 34.20 5.48L34.20 5.48L34.20 5.48Q35.34 4.22 37.07 4.22ZM37.07 5.16L37.07 5.16L37.07 5.16Q35.88 5.16 35.01 6.05L35.01 6.05L35.01 6.05Q34.15 6.94 34.15 8.20L34.15 8.20L34.15 8.20Q34.15 9.01 34.55 9.72L34.55 9.72L34.55 9.72Q34.94 10.42 35.61 10.80L35.61 10.80L35.61 10.80Q36.28 11.18 37.07 11.18L37.07 11.18L37.07 11.18Q37.88 11.18 38.54 10.80L38.54 10.80L38.54 10.80Q39.21 10.42 39.60 9.72L39.60 9.72L39.60 9.72Q39.99 9.01 39.99 8.20L39.99 8.20L39.99 8.20Q39.99 6.94 39.13 6.05L39.13 6.05L39.13 6.05Q38.27 5.16 37.07 5.16ZM46.29 4.22L46.29 4.22L46.29 4.22Q48.02 4.22 49.16 5.47L49.16 5.47L49.16 5.47Q50.20 6.62 50.20 8.18L50.20 8.18L50.20 8.18Q50.20 9.75 49.10 10.92L49.10 10.92L49.10 10.92Q48.01 12.09 46.29 12.09L46.29 12.09L46.29 12.09Q44.57 12.09 43.48 10.92L43.48 10.92L43.48 10.92Q42.39 9.75 42.39 8.18L42.39 8.18L42.39 8.18Q42.39 6.62 43.42 5.48L43.42 5.48L43.42 5.48Q44.56 4.22 46.29 4.22ZM46.29 5.16L46.29 5.16L46.29 5.16Q45.10 5.16 44.24 6.05L44.24 6.05L44.24 6.05Q43.37 6.94 43.37 8.20L43.37 8.20L43.37 8.20Q43.37 9.01 43.77 9.72L43.77 9.72L43.77 9.72Q44.16 10.42 44.83 10.80L44.83 10.80L44.83 10.80Q45.50 11.18 46.29 11.18L46.29 11.18L46.29 11.18Q47.10 11.18 47.77 10.80L47.77 10.80L47.77 10.80Q48.43 10.42 48.82 9.72L48.82 9.72L48.82 9.72Q49.21 9.01 49.21 8.20L49.21 8.20L49.21 8.20Q49.21 6.94 48.35 6.05L48.35 6.05L48.35 6.05Q47.49 5.16 46.29 5.16ZM51.96 12.09L51.96 1.69L52.93 1.69L52.93 7.61L56.40 4.59L57.82 4.59L54.68 7.44L58.06 12.09L56.69 12.09L53.74 8.05L52.93 8.72L52.93 12.09L51.96 12.09ZM60.10 10.39L60.10 10.39L60.10 10.39Q60.45 10.39 60.70 10.64L60.70 10.64L60.70 10.64Q60.95 10.89 60.95 11.25L60.95 11.25L60.95 11.25Q60.95 11.59 60.70 11.84L60.70 11.84L60.70 11.84Q60.45 12.09 60.10 12.09L60.10 12.09L60.10 12.09Q59.75 12.09 59.50 11.84L59.50 11.84L59.50 11.84Q59.25 11.59 59.25 11.25L59.25 11.25L59.25 11.25Q59.25 10.89 59.50 10.64L59.50 10.64L59.50 10.64Q59.75 10.39 60.10 10.39ZM62.57 12.07L62.57 8.65L62.57 7.75L62.57 7.75Q62.68 7.08 62.88 6.65L62.88 6.65L62.88 6.65Q63.36 5.48 64.17 4.93L64.17 4.93L64.17 4.93Q64.98 4.38 65.51 4.38L65.51 4.38L65.51 4.38Q65.91 4.38 66.36 4.64L66.36 4.64L65.86 5.45L65.86 5.45Q65.22 5.22 64.60 5.82L64.60 5.82L64.60 5.82Q63.97 6.43 63.73 7.15L63.73 7.15L63.73 7.15Q63.55 7.79 63.55 9.54L63.55 9.54L63.55 12.07L62.57 12.07ZM67.05 8.02L67.05 4.41L68.02 4.41L68.02 7.91L68.02 7.91Q68.02 9.19 68.15 9.67L68.15 9.67L68.15 9.67Q68.36 10.36 68.94 10.76L68.94 10.76L68.94 10.76Q69.52 11.16 70.33 11.16L70.33 11.16L70.33 11.16Q71.14 11.16 71.70 10.77L71.70 10.77L71.70 10.77Q72.26 10.38 72.47 9.75L72.47 9.75L72.47 9.75Q72.63 9.32 72.63 7.91L72.63 7.91L72.63 4.41L73.61 4.41L73.61 8.09L73.61 8.09Q73.61 9.65 73.24 10.43L73.24 10.43L73.24 10.43Q72.88 11.21 72.15 11.65L72.15 11.65L72.15 11.65Q71.43 12.09 70.33 12.09L70.33 12.09L70.33 12.09Q69.23 12.09 68.50 11.65L68.50 11.65L68.50 11.65Q67.77 11.21 67.41 10.41L67.41 10.41L67.41 10.41Q67.05 9.62 67.05 8.02L67.05 8.02Z"></path></g><defs data-v-fde0c5aa=""><linearGradient data-v-fde0c5aa="" gradientTransform="rotate(25)" id="f2969613-89eb-4826-b4a7-1216e01f5444" x1="0%" y1="0%" x2="100%" y2="0%"><stop data-v-fde0c5aa="" offset="0%" stop-color="#021802" stop-opacity="1"></stop><stop data-v-fde0c5aa="" offset="100%" stop-color="#60DBCC" stop-opacity="1"></stop></linearGradient></defs><g data-v-fde0c5aa="" id="009cb9d3-5ac1-4eef-bc70-218c98bcbf61" stroke="none" fill="url(#f2969613-89eb-4826-b4a7-1216e01f5444)" transform="matrix(0.7783136963844299,0,0,0.7783136963844299,111.2376404687889,83.5335983664395)"><path d="M64.008 72.381c4.002-3.149 12.23-11.582 15.089-21.179-6.511-8.01-33.912-42.187-40.238-50.08-.647 7.491-7.229 23.255-18.649 28.524-5.247 2.56-10.477 4.156-12.467 4.721l39.077 47.32c4.415-1.424 13.138-6.127 17.188-9.306zM90.405 75.352c-6.5 3.781-13.381 7.281-20.674 9.929-8.632 3.134-19.05 6.681-22.386 7.664v5.127l43.046-15.479.014-7.241zM6.891 35.865v14.223l38.812 47.857.033-15.043z"></path><path d="M88.717 70.42c-5.018 3.936-11.386 7.921-18.278 11.363-6.521 3.266-20.879 7.668-23.093 8.339v1.144c3.686-1.09 13.036-3.898 21.237-7.013 9.104-3.457 22.12-11.628 22.12-11.628l-1.986-2.205zM80.877 50.835l-.114.403c-2.851 10.142-11.25 18.858-15.762 22.409-4.225 3.319-13.009 8.054-17.655 9.561v2.168c6.53-2.034 15.656-6.36 20.721-9.922 8.699-6.128 17.195-14.63 22.419-22.404l.047.036C84.648 46.442 51.938 9.001 49.818 6.309c-.719 1.357-1.368 2.265-2.422 2.887C58.228 22.704 75.994 44.843 80.613 50.51l.264.325z"></path><path d="M87.321 59.925s-11.588 12.1-18.328 16.846c-5.696 4.008-14.5 7.942-21.647 10.168v1.498c.692-.212 1.838-.566 3.268-1.021 5.266-1.677 14.41-4.722 19.106-7.072 9.305-4.648 17.623-10.274 22.834-15.386l.161-.16-5.394-4.873z"></path></g><!----></svg>